<?xml version="1.0" encoding="utf-8"?>
<!-- Generator: Adobe Illustrator 18.0.0, SVG Export Plug-In . SVG Version: 6.00 Build 0)  -->
<!DOCTYPE svg PUBLIC "-//W3C//DTD SVG 1.1//EN" "http://www.w3.org/Graphics/SVG/1.1/DTD/svg11.dtd">
<svg version="1.1" id="Calque_1" xmlns="http://www.w3.org/2000/svg" xmlns:xlink="http://www.w3.org/1999/xlink" x="0px" y="0px"
	 viewBox="0 0 800 762.4" style="enable-background:new 0 0 800 762.4;" xml:space="preserve">
<path d="M720,390.9c-1.5-29.5-15.1-56.5-37.3-74.1c-17.3-13.8-38-20.7-61.5-20.7c-23.3,0-49.5,7-78,20.8
	c22.8-21.9,38.4-43.9,46.4-65.7c8.3-22.6,8.7-44.9,1.1-66.4c-9.1-26-29.4-47.4-55.8-58.7c-14.7-6.3-29.3-9.5-43.5-9.5
	c-36.5,0-62.2,21.2-75.4,35.5c-19.2-24.2-43.9-37.3-71.7-38l-5.1,0v0c-12.1,0.3-24.1,3.1-35.6,8.3c-21.6,9.7-39.3,27.3-49.8,49.6
	c-6.9,14.7-10.3,28.5-10.7,43.4c-0.6,22.5,6.5,45.4,19.8,64.5c8.6,12.4,20.7,26.7,35.9,42.6C266,304.9,236,296,209.8,296
	c-23.5,0-44.2,7-61.5,20.7c-22.2,17.6-35.8,44.6-37.3,74.1c-1.5,29.8,6.8,54.6,24.9,73.6c12.9,13.5,28.1,21.3,39.5,25.5
	c-14,24.2-18,50.1-11.5,75c8.1,31.3,32,57.1,63.9,69.2c0.7,0.3,1.4,0.5,2.2,0.6c26.5,5.8,47,5.2,67.2-1.8
	c21.3-7.4,40.3-22.1,53.5-41.3c11.6-16.8,24.1-40.5,37.3-70.4c-10,84-29.2,124.4-33.1,132c-2.4,4.6-2.5,9.9-0.5,14.6
	c2,4.7,6,8.2,11,9.6l34.6,9.8c1.5,0.4,3.1,0.6,4.6,0.6c8.4,0,15.6-6.2,16.8-14.5c8.4-56.8,13.1-108.9,15.2-167.2
	c15.4,36.7,30,65.1,43.3,84.7c13.6,19.9,32.3,34.5,54.1,42c20.2,7,40.7,7.5,67.2,1.8c0.7-0.2,1.5-0.4,2.2-0.6
	c31.9-12,55.8-37.9,63.9-69.2c6.5-25,2.5-50.9-11.5-75c11.4-4.3,26.7-12,39.5-25.5C713.2,445.5,721.5,420.7,720,390.9z M415.4,178
	c2,0,3.9-1,5-2.6c8.5-12.3,32.5-40.8,71-40.8c11.2,0,22.8,2.5,34.6,7.3c21.7,8.9,38.7,25.7,46.7,46.1c15.9,40.5-3,83.8-56.2,128.7
	c-34.3,29.7-61.3,52.9-80.3,69c-1.5,1.2-2,3.2-1.3,4.9c0.9,2.5,4,3.7,6.4,2.4c21.8-12.2,53.3-29.5,93.9-51.6
	c32.5-18.2,61.4-27.4,86.1-27.4c20.8,0,38.7,6.5,53.4,19.4c16.9,14.9,27,37.4,27.5,61.6c1.4,62.3-50.7,78.6-66.7,82.1
	c-2,0.4-3.7,1.9-4.4,3.9c-0.7,2-0.4,4.2,0.9,5.9c18.2,23.7,24.4,50.4,17.3,75.3c-7,24.8-26.5,45.3-52.2,55
	c-10.7,2.3-20.1,3.4-28.9,3.4c-10.3,0-19.8-1.6-29.1-4.9c-18-6.4-33.6-18.9-45.1-36.1c-26.4-39.4-52.7-108.3-66-145.8
	c-0.6-1.7-2.1-2.8-3.9-2.8c-2.4,0-4.2,1.8-4.2,4.2c-0.1,88-5,158.2-16.1,234.5l-32.3-9.1c7.5-14.8,37.5-83.2,40.5-227.1
	c0-1.1-0.4-2.2-1.2-3c-0.8-0.8-1.9-1.3-3-1.3c-1.8,0-3.3,1.1-3.9,2.8c-13.4,37.9-39.8,107.4-66.5,147.4
	c-11.6,17.4-27.4,30.1-45.6,36.5c-17.1,6.1-34.6,6.4-57.8,1.4c-25.7-9.7-45.2-30.3-52.2-55c-7.1-24.9-0.9-51.6,17.3-75.3
	c1.3-1.7,1.6-3.9,0.9-5.9c-0.7-2-2.4-3.4-4.4-3.9c-16-3.5-68.2-19.8-66.7-82.2c0.6-24.3,10.6-46.7,27.6-61.6
	c14.6-12.8,32.6-19.3,53.3-19.3c24.7,0,53.7,9.2,86.2,27.4c38.5,20.9,69,37.7,90.7,49.8c2.4,1.3,5.5,0.1,6.4-2.4
	c0.6-1.8,0.1-3.7-1.3-4.9c-30.5-25.7-85.6-74.5-113-112.9c-12-16.9-18.2-36.8-17.6-56.2c0.4-10,2.5-19.7,6.5-29.7
	c8.3-20.5,22.8-36.6,40.9-45.3c10.7-5.2,21.9-7.8,33.2-7.8c27,0,51.3,15.3,68.4,43.1C411.3,176.9,413.2,178,415.4,178z"/>
</svg>
